<?xml version="1.0" encoding="UTF-8"?>
<!DOCTYPE svg PUBLIC "-//W3C//DTD SVG 1.1//EN" "http://www.w3.org/Graphics/SVG/1.1/DTD/svg11.dtd">
<svg xmlns="http://www.w3.org/2000/svg" version="1.1" width="2048px" height="2048px" style="shape-rendering:geometricPrecision; text-rendering:geometricPrecision; image-rendering:optimizeQuality; fill-rule:evenodd; clip-rule:evenodd" xmlns:xlink="http://www.w3.org/1999/xlink">
<g><path style="opacity:0.998" fill="#f04f2f" d="M 1006.5,53.5 C 1044.01,50.2816 1077.01,60.7816 1105.5,85C 1391,370.5 1676.5,656 1962,941.5C 1993.61,979.58 2001.61,1022.25 1986,1069.5C 1980.03,1084.13 1972.03,1097.46 1962,1109.5C 1677.83,1393.67 1393.67,1677.83 1109.5,1962C 1070.3,1994.37 1026.64,2002.03 978.5,1985C 965.024,1979.1 952.691,1971.43 941.5,1962C 655.667,1676.17 369.833,1390.33 84,1104.5C 52.5082,1065.42 45.1749,1022.08 62,974.5C 67.9135,960.991 75.5802,948.658 85,937.5C 280.039,742.127 475.373,547.127 671,352.5C 745.695,425.862 819.195,499.362 891.5,573C 872.193,622.621 877.026,669.788 906,714.5C 922.603,737.939 944.103,755.272 970.5,766.5C 971.667,944.499 971.833,1122.5 971,1300.5C 913.092,1327.6 882.592,1373.26 879.5,1437.5C 882.554,1502.01 913.221,1547.85 971.5,1575C 1033.8,1596.88 1088.63,1585.05 1136,1539.5C 1177.16,1491.54 1186.49,1437.88 1164,1378.5C 1149.19,1346.19 1126.03,1321.86 1094.5,1305.5C 1093.33,1129.17 1093.17,952.834 1094,776.5C 1160.67,843.167 1227.33,909.833 1294,976.5C 1274.22,1032.47 1282.55,1083.8 1319,1130.5C 1359.25,1173.8 1408.41,1189.64 1466.5,1178C 1523.68,1162.16 1560.18,1125.66 1576,1068.5C 1588.32,1001.78 1567.16,948.609 1512.5,909C 1471.55,884.523 1428.21,879.19 1382.5,893C 1311.33,821.833 1240.17,750.667 1169,679.5C 1172.66,664.212 1175.16,648.712 1176.5,633C 1174.61,567.901 1144.28,521.235 1085.5,493C 1050.57,479.336 1015.23,478.003 979.5,489C 905.667,415.167 831.833,341.333 758,267.5C 757.333,266.5 757.333,265.5 758,264.5C 817.833,204.667 877.667,144.833 937.5,85C 957.559,67.969 980.559,57.469 1006.5,53.5 Z"/></g>
</svg>
